<svg width="551" height="121" viewBox="0 0 551 121" fill="none" xmlns="http://www.w3.org/2000/svg">
<path d="M98.88 94.536C93.504 94.536 88.576 92.904 84.096 89.64C79.616 86.376 76.544 81.8 74.88 75.912L82.656 72.744C83.744 76.84 85.76 80.2 88.704 82.824C91.648 85.448 95.104 86.76 99.072 86.76C103.04 86.76 106.4 85.704 109.152 83.592C111.904 81.416 113.28 78.472 113.28 74.76C113.28 71.56 112.096 68.936 109.728 66.888C107.424 64.776 103.616 62.824 98.304 61.032L93.984 59.496C89.12 57.768 85.152 55.496 82.08 52.68C79.008 49.864 77.472 45.96 77.472 40.968C77.472 37.704 78.368 34.696 80.16 31.944C81.952 29.128 84.448 26.888 87.648 25.224C90.848 23.56 94.432 22.728 98.4 22.728C102.368 22.728 105.824 23.464 108.768 24.936C111.712 26.408 114.048 28.2 115.776 30.312C117.568 32.424 118.816 34.504 119.52 36.552L111.84 39.816C111.2 37.448 109.728 35.304 107.424 33.384C105.184 31.464 102.208 30.504 98.496 30.504C94.976 30.504 91.968 31.496 89.472 33.48C86.976 35.464 85.728 37.96 85.728 40.968C85.728 43.656 86.784 45.864 88.896 47.592C91.008 49.256 94.208 50.824 98.496 52.296L103.008 53.832C108.832 55.944 113.376 58.6 116.64 61.8C119.904 64.936 121.536 69.224 121.536 74.664C121.536 79.08 120.384 82.792 118.08 85.8C115.84 88.808 112.992 91.016 109.536 92.424C106.08 93.832 102.528 94.536 98.88 94.536ZM148.239 93.768C146.255 93.768 144.399 93.448 142.671 92.808C141.007 92.168 139.599 91.304 138.447 90.216C137.167 89 136.207 87.592 135.567 85.992C134.927 84.392 134.607 82.44 134.607 80.136V51.432H126.063V44.04H134.607V30.216H142.767V44.04H154.671V51.432H142.767V78.12C142.767 80.808 143.279 82.792 144.303 84.072C145.519 85.48 147.279 86.184 149.583 86.184C151.439 86.184 153.231 85.64 154.959 84.552V92.52C153.999 92.968 153.007 93.288 151.983 93.48C151.023 93.672 149.775 93.768 148.239 93.768ZM184.215 94.536C179.543 94.536 175.351 93.416 171.639 91.176C167.927 88.936 165.015 85.864 162.903 81.96C160.855 77.992 159.831 73.544 159.831 68.616C159.831 63.88 160.791 59.528 162.711 55.56C164.695 51.592 167.479 48.424 171.063 46.056C174.647 43.688 178.807 42.504 183.543 42.504C188.343 42.504 192.503 43.592 196.023 45.768C199.543 47.88 202.231 50.824 204.087 54.6C206.007 58.376 206.967 62.696 206.967 67.56C206.967 68.52 206.871 69.352 206.679 70.056H167.991C168.183 73.768 169.079 76.904 170.679 79.464C172.279 82.024 174.295 83.944 176.727 85.224C179.223 86.504 181.815 87.144 184.503 87.144C190.775 87.144 195.607 84.2 198.999 78.312L205.911 81.672C203.799 85.64 200.919 88.776 197.271 91.08C193.687 93.384 189.335 94.536 184.215 94.536ZM198.327 63.336C198.199 61.288 197.623 59.24 196.599 57.192C195.575 55.144 193.943 53.416 191.703 52.008C189.527 50.6 186.775 49.896 183.447 49.896C179.607 49.896 176.343 51.144 173.655 53.64C171.031 56.072 169.303 59.304 168.471 63.336H198.327ZM232.634 94.536C229.05 94.536 225.85 93.832 223.034 92.424C220.218 91.016 218.042 89.096 216.506 86.664C214.97 84.168 214.202 81.352 214.202 78.216C214.202 73.032 216.154 69 220.058 66.12C223.962 63.176 228.89 61.704 234.842 61.704C237.786 61.704 240.506 62.024 243.002 62.664C245.562 63.304 247.514 64.04 248.858 64.872V61.896C248.858 58.248 247.578 55.336 245.018 53.16C242.458 50.92 239.226 49.8 235.322 49.8C232.57 49.8 230.042 50.408 227.738 51.624C225.434 52.776 223.61 54.408 222.266 56.52L216.122 51.912C218.042 48.968 220.666 46.664 223.994 45C227.386 43.336 231.13 42.504 235.226 42.504C241.882 42.504 247.098 44.264 250.874 47.784C254.714 51.24 256.634 55.976 256.634 61.992V93H248.858V85.992H248.474C247.066 88.36 244.954 90.376 242.138 92.04C239.322 93.704 236.154 94.536 232.634 94.536ZM233.402 87.336C236.154 87.336 238.714 86.632 241.082 85.224C243.45 83.816 245.338 81.928 246.746 79.56C248.154 77.192 248.858 74.6 248.858 71.784C247.322 70.76 245.434 69.928 243.194 69.288C240.954 68.648 238.586 68.328 236.09 68.328C231.61 68.328 228.218 69.256 225.914 71.112C223.674 72.968 222.554 75.368 222.554 78.312C222.554 81 223.578 83.176 225.626 84.84C227.674 86.504 230.266 87.336 233.402 87.336ZM267.986 44.04H275.762V51.24H276.146C277.554 48.744 279.666 46.664 282.482 45C285.298 43.336 288.274 42.504 291.41 42.504C294.994 42.504 298.098 43.368 300.722 45.096C303.41 46.824 305.33 49.128 306.482 52.008C308.21 49.128 310.482 46.824 313.298 45.096C316.178 43.368 319.506 42.504 323.282 42.504C328.914 42.504 333.138 44.232 335.954 47.688C338.834 51.08 340.274 55.72 340.274 61.608V93H332.21V62.856C332.21 58.312 331.282 55.016 329.426 52.968C327.57 50.92 324.818 49.896 321.17 49.896C318.738 49.896 316.53 50.6 314.546 52.008C312.562 53.416 310.994 55.304 309.842 57.672C308.754 60.04 308.21 62.6 308.21 65.352V93H300.05V62.952C300.05 58.344 299.122 55.016 297.266 52.968C295.41 50.92 292.69 49.896 289.106 49.896C286.674 49.896 284.466 50.632 282.482 52.104C280.498 53.512 278.93 55.432 277.778 57.864C276.69 60.232 276.146 62.792 276.146 65.544V93H267.986V44.04ZM353.618 24.264H393.362V32.04H361.682V55.56H390.29V63.24H361.682V93H353.618V24.264ZM402.986 24.264H411.146V93H402.986V24.264ZM445.327 94.536C440.527 94.536 436.207 93.384 432.367 91.08C428.527 88.776 425.519 85.64 423.343 81.672C421.231 77.704 420.175 73.32 420.175 68.52C420.175 63.72 421.231 59.336 423.343 55.368C425.519 51.4 428.527 48.264 432.367 45.96C436.207 43.656 440.527 42.504 445.327 42.504C450.127 42.504 454.447 43.656 458.287 45.96C462.127 48.264 465.103 51.4 467.215 55.368C469.391 59.336 470.479 63.72 470.479 68.52C470.479 73.32 469.391 77.704 467.215 81.672C465.103 85.64 462.127 88.776 458.287 91.08C454.447 93.384 450.127 94.536 445.327 94.536ZM445.327 87.144C448.335 87.144 451.119 86.408 453.679 84.936C456.303 83.4 458.383 81.224 459.919 78.408C461.519 75.592 462.319 72.296 462.319 68.52C462.319 64.744 461.519 61.448 459.919 58.632C458.383 55.816 456.303 53.672 453.679 52.2C451.119 50.664 448.335 49.896 445.327 49.896C442.319 49.896 439.503 50.664 436.879 52.2C434.255 53.672 432.143 55.816 430.543 58.632C429.007 61.448 428.239 64.744 428.239 68.52C428.239 72.296 429.007 75.592 430.543 78.408C432.143 81.224 434.255 83.4 436.879 84.936C439.503 86.408 442.319 87.144 445.327 87.144ZM473.641 44.04H481.993L493.705 82.728H493.801L506.089 44.04H514.537L526.921 82.632H527.017L538.633 44.04H546.889L531.049 93H522.793L510.121 53.928L497.545 93H489.385L473.641 44.04Z" fill="white"/>
<path d="M39.5982 51.5322C39.5982 48.111 42.3719 45.3372 45.791 45.3372C49.2101 45.3372 51.9838 48.111 51.9838 51.53C51.9838 54.9513 49.2123 57.7229 45.791 57.7229C45.791 57.7229 45.791 57.7229 45.7888 57.7229C42.3698 57.7229 39.5982 54.9513 39.5982 51.5322C39.5982 51.5322 39.596 51.5322 39.596 51.53L39.5982 51.5322ZM54.0116 51.5454C54.0116 46.9932 50.3213 43.3029 45.7691 43.3029C41.2169 43.3029 37.5266 46.9932 37.5266 51.5454C37.5266 56.0975 41.2169 59.7879 45.7691 59.7879C50.3191 59.7813 54.0051 56.0932 54.0116 51.5454ZM22.8091 76.975L18.7819 75.3082C19.9282 77.6663 22.306 79.2632 25.0557 79.2632C27.9366 79.2632 30.4107 77.511 31.4651 75.0129L31.4826 74.9669C31.8216 74.175 32.0207 73.2519 32.0207 72.285C32.0207 68.4416 28.9057 65.3266 25.0623 65.3266C24.1763 65.3266 23.3298 65.4929 22.551 65.7925L22.5991 65.7772L26.7619 67.4988C28.6257 68.295 29.9098 70.115 29.9098 72.2325C29.9098 75.0675 27.6107 77.3666 24.7757 77.3666C24.0669 77.3666 23.3932 77.2222 22.7785 76.9641L22.8113 76.9772L22.8091 76.975ZM34.9432 27.1963C17.756 27.1985 3.65976 40.4219 2.26632 57.2482L2.25757 57.3663L19.8407 64.6332C21.3019 63.6225 23.111 63.021 25.0623 63.021C25.0644 63.021 25.0666 63.021 25.0666 63.021C25.2394 63.021 25.4079 63.0319 25.5807 63.0385L33.401 51.716V51.5541C33.4076 44.7291 38.9419 39.1991 45.7669 39.1991C52.5963 39.1991 58.1329 44.7357 58.1329 51.565C58.1329 58.3944 52.5963 63.931 45.7669 63.931H45.4804L34.3373 71.8891C34.3373 72.0313 34.3482 72.1757 34.3482 72.3244C34.3482 72.3266 34.3482 72.3288 34.3482 72.331C34.3482 77.4541 30.1941 81.6082 25.071 81.6082C20.5932 81.6082 16.8548 78.4341 15.9863 74.2144L15.9754 74.1554L3.38632 68.9425C7.41351 82.8222 20.0135 92.7972 34.941 92.7972C53.0557 92.7972 67.7404 78.1125 67.7404 59.9979C67.7404 41.8832 53.0557 27.1985 34.941 27.1985L34.9432 27.1963Z" fill="white"/>
</svg>
